<svg width="184" height="60" viewBox="0 0 184 60" fill="none" xmlns="http://www.w3.org/2000/svg">
<path d="M2.58398 54.0103L3.74561 53.9087C3.80062 54.3742 3.92757 54.7572 4.12646 55.0576C4.32959 55.3538 4.64274 55.5951 5.06592 55.7812C5.4891 55.9632 5.96517 56.0542 6.49414 56.0542C6.96387 56.0542 7.37858 55.9844 7.73828 55.8447C8.09798 55.7051 8.36458 55.5146 8.53809 55.2734C8.71582 55.028 8.80469 54.7614 8.80469 54.4736C8.80469 54.1816 8.72005 53.9277 8.55078 53.7119C8.38151 53.4919 8.10221 53.3078 7.71289 53.1597C7.46322 53.0623 6.91097 52.9121 6.05615 52.709C5.20133 52.5016 4.60254 52.307 4.25977 52.125C3.81543 51.8923 3.48324 51.6045 3.26318 51.2617C3.04736 50.9147 2.93945 50.5275 2.93945 50.1001C2.93945 49.6304 3.07275 49.1924 3.33936 48.7861C3.60596 48.3757 3.99528 48.0646 4.50732 47.853C5.01937 47.6414 5.58854 47.5356 6.21484 47.5356C6.90462 47.5356 7.51188 47.6478 8.03662 47.8721C8.56559 48.0921 8.97184 48.418 9.25537 48.8496C9.5389 49.2812 9.69124 49.77 9.7124 50.3159L8.53174 50.4048C8.46826 49.8166 8.25244 49.3722 7.88428 49.0718C7.52035 48.7713 6.98079 48.6211 6.26562 48.6211C5.52083 48.6211 4.97705 48.7586 4.63428 49.0337C4.29574 49.3045 4.12646 49.6325 4.12646 50.0176C4.12646 50.3519 4.24707 50.627 4.48828 50.8428C4.72526 51.0586 5.3431 51.2808 6.3418 51.5093C7.34473 51.7336 8.03239 51.9303 8.40479 52.0996C8.94645 52.3493 9.34635 52.6667 9.60449 53.0518C9.86263 53.4326 9.9917 53.8727 9.9917 54.3721C9.9917 54.8672 9.84993 55.3348 9.56641 55.7749C9.28288 56.2108 8.87451 56.5514 8.34131 56.7969C7.81234 57.0381 7.21566 57.1587 6.55127 57.1587C5.70915 57.1587 5.00244 57.036 4.43115 56.7905C3.8641 56.5451 3.41764 56.1769 3.0918 55.686C2.77018 55.1909 2.60091 54.6323 2.58398 54.0103ZM12.8278 57V47.6943H13.9704V51.0332C14.5036 50.4154 15.1765 50.1064 15.989 50.1064C16.4883 50.1064 16.9221 50.2059 17.2902 50.4048C17.6584 50.5994 17.9208 50.8703 18.0773 51.2173C18.2382 51.5643 18.3186 52.0679 18.3186 52.728V57H17.176V52.728C17.176 52.1567 17.0511 51.742 16.8015 51.4839C16.556 51.2215 16.2069 51.0903 15.7541 51.0903C15.4156 51.0903 15.0961 51.1792 14.7956 51.3569C14.4994 51.5304 14.2878 51.7674 14.1608 52.0679C14.0339 52.3683 13.9704 52.783 13.9704 53.312V57H12.8278ZM25.9789 54.8291L27.1596 54.9751C26.9734 55.6649 26.6285 56.2002 26.1249 56.5811C25.6213 56.9619 24.9781 57.1523 24.1952 57.1523C23.2092 57.1523 22.4263 56.8498 21.8466 56.2446C21.2711 55.6353 20.9833 54.7826 20.9833 53.6865C20.9833 52.5524 21.2753 51.6722 21.8593 51.0459C22.4433 50.4196 23.2007 50.1064 24.1317 50.1064C25.0331 50.1064 25.7694 50.4132 26.3407 51.0269C26.912 51.6405 27.1977 52.5037 27.1977 53.6167C27.1977 53.6844 27.1955 53.786 27.1913 53.9214H22.164C22.2063 54.6619 22.4158 55.229 22.7924 55.6226C23.169 56.0161 23.6387 56.2129 24.2016 56.2129C24.6205 56.2129 24.9781 56.1029 25.2743 55.8828C25.5705 55.6628 25.8054 55.3115 25.9789 54.8291ZM22.2274 52.9819H25.9916C25.9408 52.4149 25.7969 51.9896 25.56 51.7061C25.196 51.266 24.7242 51.0459 24.1444 51.0459C23.6197 51.0459 23.1775 51.2215 22.8178 51.5728C22.4623 51.924 22.2655 52.3937 22.2274 52.9819ZM29.8751 57V47.6943H31.0177V57H29.8751ZM36.5896 55.978L36.7547 56.9873C36.4331 57.055 36.1453 57.0889 35.8914 57.0889C35.4767 57.0889 35.1551 57.0233 34.9266 56.8921C34.698 56.7609 34.5372 56.5895 34.4441 56.3779C34.351 56.1621 34.3045 55.7114 34.3045 55.0259V51.1475H33.4666V50.2588H34.3045V48.5894L35.4407 47.9038V50.2588H36.5896V51.1475H35.4407V55.0894C35.4407 55.4152 35.4598 55.6247 35.4979 55.7178C35.5402 55.8109 35.6058 55.8849 35.6946 55.9399C35.7877 55.995 35.9189 56.0225 36.0882 56.0225C36.2151 56.0225 36.3823 56.0076 36.5896 55.978ZM43.6279 54.8291L44.8086 54.9751C44.6224 55.6649 44.2775 56.2002 43.7739 56.5811C43.2703 56.9619 42.6271 57.1523 41.8442 57.1523C40.8582 57.1523 40.0754 56.8498 39.4956 56.2446C38.9201 55.6353 38.6323 54.7826 38.6323 53.6865C38.6323 52.5524 38.9243 51.6722 39.5083 51.0459C40.0923 50.4196 40.8498 50.1064 41.7808 50.1064C42.6821 50.1064 43.4185 50.4132 43.9897 51.0269C44.561 51.6405 44.8467 52.5037 44.8467 53.6167C44.8467 53.6844 44.8446 53.786 44.8403 53.9214H39.813C39.8553 54.6619 40.0648 55.229 40.4414 55.6226C40.818 56.0161 41.2878 56.2129 41.8506 56.2129C42.2695 56.2129 42.6271 56.1029 42.9233 55.8828C43.2196 55.6628 43.4544 55.3115 43.6279 54.8291ZM39.8765 52.9819H43.6406C43.5898 52.4149 43.446 51.9896 43.209 51.7061C42.8451 51.266 42.3732 51.0459 41.7935 51.0459C41.2687 51.0459 40.8265 51.2215 40.4668 51.5728C40.1113 51.924 39.9146 52.3937 39.8765 52.9819ZM47.5368 57V50.2588H48.5651V51.2808C48.8275 50.8026 49.0687 50.4873 49.2888 50.335C49.5131 50.1826 49.7585 50.1064 50.0251 50.1064C50.4102 50.1064 50.8016 50.2292 51.1994 50.4746L50.8059 51.5347C50.5266 51.3696 50.2473 51.2871 49.968 51.2871C49.7183 51.2871 49.494 51.3633 49.2951 51.5156C49.0962 51.6637 48.9545 51.8711 48.8698 52.1377C48.7429 52.5439 48.6794 52.9883 48.6794 53.4707V57H47.5368ZM58.3697 57V51.1475H57.3605V50.2588H58.3697V49.5415C58.3697 49.0887 58.4099 48.7523 58.4903 48.5322C58.6004 48.236 58.7929 47.9969 59.068 47.8149C59.3473 47.6287 59.7366 47.5356 60.2359 47.5356C60.5576 47.5356 60.913 47.5737 61.3023 47.6499L61.131 48.6465C60.894 48.6042 60.6697 48.583 60.4581 48.583C60.1111 48.583 59.8657 48.6571 59.7218 48.8052C59.5779 48.9533 59.506 49.2305 59.506 49.6367V50.2588H60.8199V51.1475H59.506V57H58.3697ZM62.5896 53.6294C62.5896 52.381 62.9367 51.4564 63.6307 50.8555C64.2104 50.3561 64.9171 50.1064 65.7508 50.1064C66.6775 50.1064 67.435 50.4111 68.0232 51.0205C68.6115 51.6257 68.9056 52.4635 68.9056 53.5342C68.9056 54.4017 68.7744 55.0851 68.512 55.5845C68.2539 56.0796 67.8751 56.4647 67.3758 56.7397C66.8807 57.0148 66.339 57.1523 65.7508 57.1523C64.8071 57.1523 64.0433 56.8498 63.4593 56.2446C62.8795 55.6395 62.5896 54.7677 62.5896 53.6294ZM63.764 53.6294C63.764 54.4927 63.9523 55.1401 64.3289 55.5718C64.7055 55.9992 65.1795 56.2129 65.7508 56.2129C66.3178 56.2129 66.7897 55.9971 67.1663 55.5654C67.5429 55.1338 67.7313 54.4757 67.7313 53.5913C67.7313 52.7576 67.5408 52.1271 67.16 51.6997C66.7833 51.2681 66.3136 51.0522 65.7508 51.0522C65.1795 51.0522 64.7055 51.266 64.3289 51.6934C63.9523 52.1208 63.764 52.7661 63.764 53.6294ZM71.5386 57V50.2588H72.5669V51.2808C72.8293 50.8026 73.0705 50.4873 73.2905 50.335C73.5148 50.1826 73.7603 50.1064 74.0269 50.1064C74.4119 50.1064 74.8034 50.2292 75.2012 50.4746L74.8076 51.5347C74.5283 51.3696 74.249 51.2871 73.9697 51.2871C73.7201 51.2871 73.4958 51.3633 73.2969 51.5156C73.098 51.6637 72.9562 51.8711 72.8716 52.1377C72.7446 52.5439 72.6812 52.9883 72.6812 53.4707V57H71.5386ZM82.0985 59.5835V50.2588H83.1395V51.1348C83.385 50.792 83.6622 50.536 83.9711 50.3667C84.28 50.1932 84.6545 50.1064 85.0946 50.1064C85.6701 50.1064 86.178 50.2546 86.6181 50.5508C87.0582 50.847 87.3904 51.266 87.6146 51.8076C87.8389 52.3451 87.9511 52.9354 87.9511 53.5786C87.9511 54.2684 87.8262 54.8905 87.5766 55.4448C87.3311 55.995 86.9714 56.4181 86.4975 56.7144C86.0277 57.0063 85.5326 57.1523 85.0121 57.1523C84.6312 57.1523 84.2885 57.0719 83.9838 56.9111C83.6833 56.7503 83.4358 56.5472 83.2411 56.3018V59.5835H82.0985ZM83.1332 53.6675C83.1332 54.535 83.3088 55.1761 83.6601 55.5908C84.0113 56.0055 84.4366 56.2129 84.9359 56.2129C85.4437 56.2129 85.8775 55.9992 86.2372 55.5718C86.6011 55.1401 86.7831 54.4736 86.7831 53.5723C86.7831 52.7132 86.6054 52.07 86.2499 51.6426C85.8987 51.2152 85.4776 51.0015 84.9867 51.0015C84.5001 51.0015 84.0684 51.23 83.6918 51.687C83.3194 52.1398 83.1332 52.8 83.1332 53.6675ZM95.2496 54.8291L96.4303 54.9751C96.2441 55.6649 95.8992 56.2002 95.3956 56.5811C94.892 56.9619 94.2488 57.1523 93.4659 57.1523C92.4799 57.1523 91.697 56.8498 91.1173 56.2446C90.5418 55.6353 90.254 54.7826 90.254 53.6865C90.254 52.5524 90.546 51.6722 91.13 51.0459C91.714 50.4196 92.4715 50.1064 93.4024 50.1064C94.3038 50.1064 95.0401 50.4132 95.6114 51.0269C96.1827 51.6405 96.4684 52.5037 96.4684 53.6167C96.4684 53.6844 96.4662 53.786 96.462 53.9214H91.4347C91.477 54.6619 91.6865 55.229 92.0631 55.6226C92.4397 56.0161 92.9094 56.2129 93.4723 56.2129C93.8912 56.2129 94.2488 56.1029 94.545 55.8828C94.8412 55.6628 95.0761 55.3115 95.2496 54.8291ZM91.4981 52.9819H95.2623C95.2115 52.4149 95.0676 51.9896 94.8307 51.7061C94.4667 51.266 93.9949 51.0459 93.4151 51.0459C92.8904 51.0459 92.4482 51.2215 92.0885 51.5728C91.733 51.924 91.5362 52.3937 91.4981 52.9819ZM101.666 55.978L101.831 56.9873C101.509 57.055 101.221 57.0889 100.968 57.0889C100.553 57.0889 100.231 57.0233 100.003 56.8921C99.7742 56.7609 99.6134 56.5895 99.5203 56.3779C99.4272 56.1621 99.3807 55.7114 99.3807 55.0259V51.1475H98.5428V50.2588H99.3807V48.5894L100.517 47.9038V50.2588H101.666V51.1475H100.517V55.0894C100.517 55.4152 100.536 55.6247 100.574 55.7178C100.616 55.8109 100.682 55.8849 100.771 55.9399C100.864 55.995 100.995 56.0225 101.164 56.0225C101.291 56.0225 101.458 56.0076 101.666 55.978ZM103.632 54.9878L104.762 54.8101C104.826 55.2629 105.001 55.6099 105.289 55.8511C105.581 56.0923 105.987 56.2129 106.508 56.2129C107.033 56.2129 107.422 56.1071 107.676 55.8955C107.93 55.6797 108.057 55.4279 108.057 55.1401C108.057 54.882 107.944 54.6789 107.72 54.5308C107.564 54.4292 107.174 54.3001 106.552 54.1436C105.714 53.932 105.132 53.75 104.807 53.5977C104.485 53.4411 104.24 53.2274 104.07 52.9565C103.905 52.6815 103.823 52.3789 103.823 52.0488C103.823 51.7484 103.89 51.4712 104.026 51.2173C104.166 50.9591 104.354 50.7454 104.591 50.5762C104.769 50.445 105.01 50.335 105.314 50.2461C105.623 50.153 105.953 50.1064 106.305 50.1064C106.834 50.1064 107.297 50.1826 107.695 50.335C108.097 50.4873 108.393 50.6947 108.583 50.957C108.774 51.2152 108.905 51.5622 108.977 51.998L107.86 52.1504C107.809 51.8034 107.661 51.5326 107.416 51.3379C107.174 51.1432 106.832 51.0459 106.387 51.0459C105.862 51.0459 105.488 51.1326 105.264 51.3062C105.039 51.4797 104.927 51.6828 104.927 51.9155C104.927 52.0636 104.974 52.1969 105.067 52.3154C105.16 52.4382 105.306 52.5397 105.505 52.6201C105.619 52.6624 105.956 52.7598 106.514 52.9121C107.322 53.1279 107.885 53.3057 108.203 53.4453C108.524 53.5807 108.776 53.7796 108.958 54.042C109.14 54.3044 109.231 54.6302 109.231 55.0195C109.231 55.4004 109.119 55.7601 108.895 56.0986C108.674 56.4329 108.355 56.6932 107.936 56.8794C107.517 57.0614 107.043 57.1523 106.514 57.1523C105.638 57.1523 104.97 56.9704 104.508 56.6064C104.051 56.2425 103.759 55.703 103.632 54.9878ZM116.814 49.0083V47.6943H117.956V49.0083H116.814ZM116.814 57V50.2588H117.956V57H116.814ZM121.002 57V50.2588H122.03V51.2173C122.525 50.4767 123.241 50.1064 124.176 50.1064C124.582 50.1064 124.955 50.1805 125.293 50.3286C125.636 50.4725 125.892 50.6629 126.061 50.8999C126.23 51.1369 126.349 51.4183 126.417 51.7441C126.459 51.9557 126.48 52.326 126.48 52.855V57H125.338V52.8994C125.338 52.4339 125.293 52.0869 125.204 51.8584C125.115 51.6257 124.957 51.4416 124.728 51.3062C124.504 51.1665 124.239 51.0967 123.935 51.0967C123.448 51.0967 123.027 51.2511 122.671 51.5601C122.32 51.869 122.145 52.4551 122.145 53.3184V57H121.002ZM134.552 57V47.6943H138.043C138.754 47.6943 139.323 47.7896 139.75 47.98C140.182 48.1662 140.519 48.4561 140.76 48.8496C141.005 49.2389 141.128 49.6473 141.128 50.0747C141.128 50.4725 141.02 50.847 140.804 51.1982C140.588 51.5495 140.263 51.833 139.827 52.0488C140.389 52.2139 140.821 52.4953 141.122 52.8931C141.426 53.2909 141.579 53.7606 141.579 54.3022C141.579 54.7381 141.486 55.1444 141.299 55.521C141.117 55.8934 140.891 56.1812 140.62 56.3843C140.349 56.5874 140.009 56.7419 139.598 56.8477C139.192 56.9492 138.693 57 138.1 57H134.552ZM135.783 51.6045H137.795C138.341 51.6045 138.733 51.5685 138.97 51.4966C139.283 51.4035 139.518 51.249 139.674 51.0332C139.835 50.8174 139.916 50.5465 139.916 50.2207C139.916 49.9118 139.841 49.641 139.693 49.4082C139.545 49.1712 139.334 49.0104 139.059 48.9258C138.784 48.8369 138.312 48.7925 137.643 48.7925H135.783V51.6045ZM135.783 55.9019H138.1C138.498 55.9019 138.777 55.887 138.938 55.8574C139.222 55.8066 139.458 55.722 139.649 55.6035C139.839 55.485 139.996 55.3136 140.119 55.0894C140.241 54.8608 140.303 54.5985 140.303 54.3022C140.303 53.9552 140.214 53.6548 140.036 53.4009C139.858 53.1427 139.611 52.9629 139.293 52.8613C138.98 52.7555 138.528 52.7026 137.935 52.7026H135.783V55.9019ZM144.002 53.6294C144.002 52.381 144.349 51.4564 145.043 50.8555C145.623 50.3561 146.33 50.1064 147.163 50.1064C148.09 50.1064 148.848 50.4111 149.436 51.0205C150.024 51.6257 150.318 52.4635 150.318 53.5342C150.318 54.4017 150.187 55.0851 149.925 55.5845C149.666 56.0796 149.288 56.4647 148.788 56.7397C148.293 57.0148 147.752 57.1523 147.163 57.1523C146.22 57.1523 145.456 56.8498 144.872 56.2446C144.292 55.6395 144.002 54.7677 144.002 53.6294ZM145.176 53.6294C145.176 54.4927 145.365 55.1401 145.741 55.5718C146.118 55.9992 146.592 56.2129 147.163 56.2129C147.73 56.2129 148.202 55.9971 148.579 55.5654C148.955 55.1338 149.144 54.4757 149.144 53.5913C149.144 52.7576 148.953 52.1271 148.572 51.6997C148.196 51.2681 147.726 51.0522 147.163 51.0522C146.592 51.0522 146.118 51.266 145.741 51.6934C145.365 52.1208 145.176 52.7661 145.176 53.6294ZM152.507 54.9878L153.637 54.8101C153.7 55.2629 153.876 55.6099 154.163 55.8511C154.455 56.0923 154.862 56.2129 155.382 56.2129C155.907 56.2129 156.296 56.1071 156.55 55.8955C156.804 55.6797 156.931 55.4279 156.931 55.1401C156.931 54.882 156.819 54.6789 156.595 54.5308C156.438 54.4292 156.049 54.3001 155.427 54.1436C154.589 53.932 154.007 53.75 153.681 53.5977C153.359 53.4411 153.114 53.2274 152.945 52.9565C152.78 52.6815 152.697 52.3789 152.697 52.0488C152.697 51.7484 152.765 51.4712 152.9 51.2173C153.04 50.9591 153.228 50.7454 153.465 50.5762C153.643 50.445 153.884 50.335 154.189 50.2461C154.498 50.153 154.828 50.1064 155.179 50.1064C155.708 50.1064 156.171 50.1826 156.569 50.335C156.971 50.4873 157.267 50.6947 157.458 50.957C157.648 51.2152 157.78 51.5622 157.851 51.998L156.734 52.1504C156.684 51.8034 156.535 51.5326 156.29 51.3379C156.049 51.1432 155.706 51.0459 155.262 51.0459C154.737 51.0459 154.362 51.1326 154.138 51.3062C153.914 51.4797 153.802 51.6828 153.802 51.9155C153.802 52.0636 153.848 52.1969 153.941 52.3154C154.034 52.4382 154.18 52.5397 154.379 52.6201C154.494 52.6624 154.83 52.7598 155.389 52.9121C156.197 53.1279 156.76 53.3057 157.077 53.4453C157.399 53.5807 157.65 53.7796 157.832 54.042C158.014 54.3044 158.105 54.6302 158.105 55.0195C158.105 55.4004 157.993 55.7601 157.769 56.0986C157.549 56.4329 157.229 56.6932 156.81 56.8794C156.392 57.0614 155.918 57.1523 155.389 57.1523C154.513 57.1523 153.844 56.9704 153.383 56.6064C152.926 56.2425 152.634 55.703 152.507 54.9878ZM163.258 55.978L163.423 56.9873C163.102 57.055 162.814 57.0889 162.56 57.0889C162.145 57.0889 161.824 57.0233 161.595 56.8921C161.367 56.7609 161.206 56.5895 161.113 56.3779C161.02 56.1621 160.973 55.7114 160.973 55.0259V51.1475H160.135V50.2588H160.973V48.5894L162.109 47.9038V50.2588H163.258V51.1475H162.109V55.0894C162.109 55.4152 162.129 55.6247 162.167 55.7178C162.209 55.8109 162.275 55.8849 162.363 55.9399C162.456 55.995 162.588 56.0225 162.757 56.0225C162.884 56.0225 163.051 56.0076 163.258 55.978ZM165.257 53.6294C165.257 52.381 165.604 51.4564 166.298 50.8555C166.877 50.3561 167.584 50.1064 168.418 50.1064C169.345 50.1064 170.102 50.4111 170.69 51.0205C171.278 51.6257 171.573 52.4635 171.573 53.5342C171.573 54.4017 171.441 55.0851 171.179 55.5845C170.921 56.0796 170.542 56.4647 170.043 56.7397C169.548 57.0148 169.006 57.1523 168.418 57.1523C167.474 57.1523 166.71 56.8498 166.126 56.2446C165.547 55.6395 165.257 54.7677 165.257 53.6294ZM166.431 53.6294C166.431 54.4927 166.619 55.1401 166.996 55.5718C167.373 55.9992 167.846 56.2129 168.418 56.2129C168.985 56.2129 169.457 55.9971 169.833 55.5654C170.21 55.1338 170.398 54.4757 170.398 53.5913C170.398 52.7576 170.208 52.1271 169.827 51.6997C169.45 51.2681 168.981 51.0522 168.418 51.0522C167.846 51.0522 167.373 51.266 166.996 51.6934C166.619 52.1208 166.431 52.7661 166.431 53.6294ZM174.218 57V50.2588H175.247V51.2173C175.742 50.4767 176.457 50.1064 177.392 50.1064C177.798 50.1064 178.171 50.1805 178.509 50.3286C178.852 50.4725 179.108 50.6629 179.277 50.8999C179.447 51.1369 179.565 51.4183 179.633 51.7441C179.675 51.9557 179.696 52.326 179.696 52.855V57H178.554V52.8994C178.554 52.4339 178.509 52.0869 178.42 51.8584C178.332 51.6257 178.173 51.4416 177.944 51.3062C177.72 51.1665 177.456 51.0967 177.151 51.0967C176.664 51.0967 176.243 51.2511 175.888 51.5601C175.536 51.869 175.361 52.4551 175.361 53.3184V57H174.218Z" fill="white"/>
<path d="M11.2969 29.5156C9.97396 29.5156 8.70312 29.2552 7.48438 28.7344C6.27604 28.2135 5.20312 27.4635 4.26562 26.4844C3.33854 25.5052 2.59896 24.3125 2.04688 22.9062C1.49479 21.4896 1.21875 19.8958 1.21875 18.125C1.21875 16.3542 1.48958 14.75 2.03125 13.3125C2.57292 11.8646 3.32292 10.6198 4.28125 9.57812C5.22917 8.54688 6.34896 7.75 7.64062 7.1875C8.93229 6.625 10.3125 6.34375 11.7812 6.34375C12.875 6.34375 13.8646 6.47917 14.75 6.75C15.6354 7.02083 16.4792 7.40104 17.2812 7.89062L17.9219 6.82812H19.1719L19.3125 14.7344H18.0312C17.8646 13.9635 17.6146 13.1302 17.2812 12.2344C16.9479 11.3281 16.5573 10.5625 16.1094 9.9375C15.6094 9.22917 15.0156 8.67708 14.3281 8.28125C13.6406 7.875 12.8542 7.67188 11.9688 7.67188C10.9583 7.67188 10.0156 7.89583 9.14062 8.34375C8.27604 8.79167 7.52604 9.45312 6.89062 10.3281C6.28646 11.1719 5.8125 12.2448 5.46875 13.5469C5.125 14.849 4.95312 16.3021 4.95312 17.9062C4.95312 19.3229 5.13021 20.625 5.48438 21.8125C5.84896 22.9896 6.36458 24.026 7.03125 24.9219C7.69792 25.8073 8.48438 26.5 9.39062 27C10.3073 27.5 11.3281 27.75 12.4531 27.75C13.2969 27.75 14.0729 27.6198 14.7812 27.3594C15.4896 27.0885 16.1042 26.7344 16.625 26.2969C17.1458 25.8385 17.6042 25.3177 18 24.7344C18.3958 24.151 18.7188 23.5156 18.9688 22.8281L20.1406 23.3906C19.2448 25.5885 18.0573 27.1615 16.5781 28.1094C15.099 29.0469 13.3385 29.5156 11.2969 29.5156ZM38.6231 21.1406C38.6231 22.224 38.4513 23.2917 38.1075 24.3438C37.7638 25.3854 37.2742 26.2708 36.6388 27C35.92 27.8333 35.0867 28.4531 34.1388 28.8594C33.1908 29.2656 32.1283 29.4688 30.9513 29.4688C29.9721 29.4688 29.0398 29.2865 28.1544 28.9219C27.269 28.5469 26.4825 28.0052 25.795 27.2969C25.1179 26.599 24.5763 25.75 24.17 24.75C23.7742 23.7396 23.5763 22.6094 23.5763 21.3594C23.5763 18.9531 24.2742 16.9844 25.67 15.4531C27.0763 13.9219 28.9148 13.1562 31.1856 13.1562C33.3419 13.1562 35.1179 13.8854 36.5138 15.3438C37.92 16.7917 38.6231 18.724 38.6231 21.1406ZM35.3888 21.1719C35.3888 20.3906 35.3106 19.5677 35.1544 18.7031C34.9981 17.8281 34.7638 17.0885 34.4513 16.4844C34.1179 15.8385 33.6804 15.3229 33.1388 14.9375C32.5971 14.5417 31.9356 14.3438 31.1544 14.3438C30.3523 14.3438 29.6648 14.5417 29.0919 14.9375C28.5294 15.3333 28.071 15.875 27.7169 16.5625C27.3835 17.1979 27.1492 17.9219 27.0138 18.7344C26.8783 19.5469 26.8106 20.3333 26.8106 21.0938C26.8106 22.0938 26.8888 23.0208 27.045 23.875C27.2117 24.7188 27.4721 25.474 27.8263 26.1406C28.1804 26.8073 28.6231 27.3333 29.1544 27.7188C29.696 28.0938 30.3627 28.2812 31.1544 28.2812C32.4565 28.2812 33.4877 27.651 34.2481 26.3906C35.0085 25.1302 35.3888 23.3906 35.3888 21.1719ZM54.9806 29H42.5119V28.1719L51.2306 14.8594H49.0744C48.1681 14.8594 47.4598 14.875 46.9494 14.9062C46.439 14.9375 45.9702 15.0417 45.5431 15.2188C45.2515 15.3333 44.9754 15.6615 44.715 16.2031C44.465 16.7448 44.2463 17.4531 44.0588 18.3281H43.1056V13.5938H54.8869V14.2344L46.0275 27.7344C46.4025 27.7448 46.814 27.7552 47.2619 27.7656C47.7098 27.7656 48.1942 27.7656 48.715 27.7656C49.1317 27.7656 49.564 27.7604 50.0119 27.75C50.4702 27.7396 51.0535 27.7135 51.7619 27.6719C52.1785 27.651 52.491 27.5104 52.6994 27.25C52.9181 26.9896 53.0848 26.6927 53.1994 26.3594C53.314 26.0573 53.4494 25.6406 53.6056 25.1094C53.7723 24.5781 53.9181 24.0625 54.0431 23.5625H54.9806V29ZM57.7444 34.0312C57.7444 33.5104 57.885 33.0833 58.1662 32.75C58.4579 32.4271 58.8173 32.2656 59.2444 32.2656C59.5777 32.2656 59.8642 32.3281 60.1037 32.4531C60.3433 32.5781 60.5569 32.7396 60.7444 32.9375C60.9006 33.0938 61.0673 33.3073 61.2444 33.5781C61.4215 33.849 61.5621 34.0729 61.6662 34.25C62.1871 33.9688 62.8069 33.2344 63.5256 32.0469C64.2548 30.8594 64.7808 29.8177 65.1037 28.9219C64.1142 26.4531 63.2183 24.2448 62.4162 22.2969C61.6142 20.349 60.7756 18.3333 59.9006 16.25C59.7027 15.7708 59.3694 15.401 58.9006 15.1406C58.4319 14.8698 57.9631 14.6979 57.4944 14.625V13.5938H64.5256V14.6875C64.2131 14.6979 63.8381 14.7656 63.4006 14.8906C62.9631 15.0052 62.7444 15.1406 62.7444 15.2969C62.7444 15.3594 62.7652 15.4635 62.8069 15.6094C62.859 15.7552 62.9162 15.9062 62.9787 16.0625C63.3746 17.0938 63.9787 18.5833 64.7912 20.5312C65.6037 22.4688 66.234 24.0208 66.6819 25.1875C67.1506 24.0729 67.635 22.9219 68.135 21.7344C68.6454 20.5365 69.2131 19.125 69.8381 17.5C69.911 17.3021 70.0152 17.0312 70.1506 16.6875C70.286 16.3333 70.3537 16.0312 70.3537 15.7812C70.3537 15.5104 70.1142 15.2604 69.635 15.0312C69.1662 14.7917 68.7183 14.6458 68.2912 14.5938V13.5938H74.01V14.5625C73.6975 14.6146 73.286 14.7969 72.7756 15.1094C72.2652 15.4115 71.885 15.8438 71.635 16.4062C70.3954 19.2812 69.2912 21.901 68.3225 24.2656C67.3642 26.6302 66.635 28.3698 66.135 29.4844C65.4787 30.9427 64.8902 32.0781 64.3694 32.8906C63.859 33.7135 63.359 34.3594 62.8694 34.8281C62.3902 35.2656 61.9527 35.5573 61.5569 35.7031C61.1715 35.8594 60.7704 35.9375 60.3537 35.9375C59.5412 35.9375 58.9006 35.7448 58.4319 35.3594C57.9735 34.974 57.7444 34.5312 57.7444 34.0312ZM109.584 29H100.381V27.8906C100.631 27.8698 100.991 27.8385 101.459 27.7969C101.939 27.7552 102.267 27.6927 102.444 27.6094C102.756 27.4844 102.985 27.2969 103.131 27.0469C103.277 26.7865 103.35 26.4531 103.35 26.0469V18.1562H92.9281V25.875C92.9281 26.2396 92.9854 26.5469 93.1 26.7969C93.225 27.0469 93.4646 27.2656 93.8187 27.4531C93.9958 27.5469 94.3083 27.6406 94.7562 27.7344C95.2146 27.8281 95.574 27.8802 95.8344 27.8906V29H86.6312V27.8906C86.8812 27.8698 87.2406 27.8385 87.7094 27.7969C88.1885 27.7552 88.5167 27.6927 88.6937 27.6094C89.0062 27.4844 89.2354 27.2969 89.3812 27.0469C89.5271 26.7865 89.6 26.4531 89.6 26.0469V10.0469C89.6 9.71354 89.5323 9.41146 89.3969 9.14062C89.2615 8.85938 89.0271 8.64062 88.6937 8.48438C88.4125 8.34896 88.0687 8.22917 87.6625 8.125C87.2667 8.02083 86.9229 7.95833 86.6312 7.9375V6.82812H95.8344V7.9375C95.5427 7.94792 95.1833 7.99479 94.7562 8.07812C94.3396 8.16146 94.0271 8.23958 93.8187 8.3125C93.4646 8.4375 93.225 8.64583 93.1 8.9375C92.9854 9.22917 92.9281 9.54688 92.9281 9.89062V16.7656H103.35V10.0469C103.35 9.71354 103.282 9.41146 103.147 9.14062C103.011 8.85938 102.777 8.64062 102.444 8.48438C102.162 8.34896 101.819 8.22917 101.412 8.125C101.017 8.02083 100.673 7.95833 100.381 7.9375V6.82812H109.584V7.9375C109.293 7.94792 108.933 7.99479 108.506 8.07812C108.09 8.16146 107.777 8.23958 107.569 8.3125C107.215 8.4375 106.975 8.64583 106.85 8.9375C106.735 9.22917 106.678 9.54688 106.678 9.89062V25.875C106.678 26.2396 106.735 26.5469 106.85 26.7969C106.975 27.0469 107.215 27.2656 107.569 27.4531C107.746 27.5469 108.058 27.6406 108.506 27.7344C108.965 27.8281 109.324 27.8802 109.584 27.8906V29ZM129.254 21.1406C129.254 22.224 129.082 23.2917 128.739 24.3438C128.395 25.3854 127.905 26.2708 127.27 27C126.551 27.8333 125.718 28.4531 124.77 28.8594C123.822 29.2656 122.76 29.4688 121.582 29.4688C120.603 29.4688 119.671 29.2865 118.786 28.9219C117.9 28.5469 117.114 28.0052 116.426 27.2969C115.749 26.599 115.207 25.75 114.801 24.75C114.405 23.7396 114.207 22.6094 114.207 21.3594C114.207 18.9531 114.905 16.9844 116.301 15.4531C117.707 13.9219 119.546 13.1562 121.817 13.1562C123.973 13.1562 125.749 13.8854 127.145 15.3438C128.551 16.7917 129.254 18.724 129.254 21.1406ZM126.02 21.1719C126.02 20.3906 125.942 19.5677 125.786 18.7031C125.629 17.8281 125.395 17.0885 125.082 16.4844C124.749 15.8385 124.312 15.3229 123.77 14.9375C123.228 14.5417 122.567 14.3438 121.786 14.3438C120.984 14.3438 120.296 14.5417 119.723 14.9375C119.161 15.3333 118.702 15.875 118.348 16.5625C118.015 17.1979 117.78 17.9219 117.645 18.7344C117.51 19.5469 117.442 20.3333 117.442 21.0938C117.442 22.0938 117.52 23.0208 117.676 23.875C117.843 24.7188 118.103 25.474 118.457 26.1406C118.812 26.8073 119.254 27.3333 119.786 27.7188C120.327 28.0938 120.994 28.2812 121.786 28.2812C123.088 28.2812 124.119 27.651 124.879 26.3906C125.64 25.1302 126.02 23.3906 126.02 21.1719ZM149.924 28.7188L144.909 29.0625L144.674 28.8438V26.8906H144.581C144.331 27.151 144.049 27.4323 143.737 27.7344C143.424 28.026 143.065 28.2917 142.659 28.5312C142.19 28.8125 141.737 29.026 141.299 29.1719C140.862 29.3177 140.242 29.3906 139.44 29.3906C138.075 29.3906 137.034 28.9479 136.315 28.0625C135.607 27.1667 135.253 25.8698 135.253 24.1719V16.7969C135.253 16.4219 135.18 16.1094 135.034 15.8594C134.898 15.599 134.695 15.375 134.424 15.1875C134.237 15.0625 134.003 14.974 133.721 14.9219C133.44 14.8594 133.143 14.8177 132.831 14.7969V13.7812L137.971 13.4062L138.206 13.625V24.3281C138.206 25.4427 138.456 26.2812 138.956 26.8438C139.456 27.4062 140.055 27.6875 140.753 27.6875C141.325 27.6875 141.836 27.599 142.284 27.4219C142.732 27.2448 143.107 27.0365 143.409 26.7969C143.69 26.5781 143.935 26.349 144.143 26.1094C144.362 25.8594 144.529 25.6302 144.643 25.4219V16.6875C144.643 16.3438 144.57 16.0417 144.424 15.7812C144.279 15.5104 144.075 15.2812 143.815 15.0938C143.628 14.9688 143.346 14.8958 142.971 14.875C142.607 14.8438 142.195 14.8177 141.737 14.7969V13.7812L147.331 13.4062L147.565 13.625V25.8594C147.565 26.2135 147.638 26.5156 147.784 26.7656C147.93 27.0156 148.133 27.2292 148.393 27.4062C148.581 27.5208 148.805 27.599 149.065 27.6406C149.325 27.6719 149.612 27.6927 149.924 27.7031V28.7188ZM163.907 21.4531C164.334 21.8281 164.662 22.2604 164.891 22.75C165.12 23.2396 165.235 23.8385 165.235 24.5469C165.235 25.974 164.699 27.1406 163.626 28.0469C162.563 28.9531 161.183 29.4062 159.485 29.4062C158.589 29.4062 157.761 29.2448 157.001 28.9219C156.251 28.599 155.714 28.3021 155.391 28.0312L155.079 29.0469H153.907L153.751 23.6875H154.829C154.912 24.0938 155.089 24.5677 155.36 25.1094C155.631 25.651 155.959 26.1406 156.344 26.5781C156.751 27.0365 157.235 27.4219 157.798 27.7344C158.37 28.0469 159.011 28.2031 159.719 28.2031C160.719 28.2031 161.49 27.9792 162.032 27.5312C162.574 27.0729 162.844 26.4219 162.844 25.5781C162.844 25.1406 162.756 24.7656 162.579 24.4531C162.412 24.1302 162.162 23.849 161.829 23.6094C161.485 23.3698 161.063 23.1562 160.563 22.9688C160.063 22.7708 159.506 22.5781 158.891 22.3906C158.402 22.2448 157.855 22.0469 157.251 21.7969C156.657 21.5365 156.146 21.2344 155.719 20.8906C155.261 20.526 154.886 20.0781 154.594 19.5469C154.303 19.0156 154.157 18.3906 154.157 17.6719C154.157 16.4115 154.626 15.3438 155.563 14.4688C156.501 13.5938 157.756 13.1562 159.329 13.1562C159.933 13.1562 160.548 13.2344 161.173 13.3906C161.808 13.5469 162.324 13.7344 162.719 13.9531L163.079 13.1406H164.204L164.438 18.0938H163.36C163.141 16.9896 162.667 16.0938 161.938 15.4062C161.219 14.7083 160.339 14.3594 159.298 14.3594C158.443 14.3594 157.771 14.5729 157.282 15C156.792 15.4271 156.548 15.9427 156.548 16.5469C156.548 17.0156 156.626 17.4062 156.782 17.7188C156.949 18.0312 157.193 18.2969 157.516 18.5156C157.829 18.724 158.219 18.9219 158.688 19.1094C159.167 19.2865 159.756 19.4896 160.454 19.7188C161.141 19.9375 161.787 20.1927 162.391 20.4844C163.006 20.776 163.511 21.099 163.907 21.4531ZM183.186 25.375C182.54 26.6042 181.676 27.5833 180.592 28.3125C179.509 29.0417 178.264 29.4062 176.858 29.4062C175.619 29.4062 174.53 29.1875 173.592 28.75C172.665 28.3125 171.9 27.7188 171.296 26.9688C170.691 26.2188 170.238 25.3438 169.936 24.3438C169.645 23.3438 169.499 22.2865 169.499 21.1719C169.499 20.1719 169.655 19.1927 169.967 18.2344C170.29 17.2656 170.759 16.3958 171.374 15.625C171.967 14.8854 172.702 14.2917 173.577 13.8438C174.462 13.3854 175.452 13.1562 176.546 13.1562C177.671 13.1562 178.634 13.3333 179.436 13.6875C180.238 14.0417 180.889 14.526 181.389 15.1406C181.869 15.724 182.223 16.4115 182.452 17.2031C182.691 17.9948 182.811 18.8542 182.811 19.7812V20.8125H172.608C172.608 21.8229 172.702 22.7396 172.889 23.5625C173.087 24.3854 173.395 25.1094 173.811 25.7344C174.217 26.3385 174.749 26.8177 175.405 27.1719C176.061 27.5156 176.842 27.6875 177.749 27.6875C178.676 27.6875 179.473 27.474 180.139 27.0469C180.816 26.6094 181.467 25.8281 182.092 24.7031L183.186 25.375ZM179.733 19.5C179.733 18.9167 179.681 18.2917 179.577 17.625C179.483 16.9583 179.327 16.401 179.108 15.9531C178.869 15.474 178.54 15.0833 178.124 14.7812C177.707 14.4792 177.171 14.3281 176.514 14.3281C175.421 14.3281 174.509 14.7865 173.78 15.7031C173.061 16.6094 172.671 17.875 172.608 19.5H179.733Z" fill="#F1CDB3"/>
</svg>
